<?xml version="1.0" encoding="iso-8859-1"?>
<!-- Generator: Adobe Illustrator 19.0.0, SVG Export Plug-In . SVG Version: 6.00 Build 0)  -->
<svg version="1.1" id="Capa_1" xmlns="http://www.w3.org/2000/svg" xmlns:xlink="http://www.w3.org/1999/xlink" x="0px" y="0px"
	 viewBox="0 0 512 512" style="enable-background:new 0 0 512 512;" xml:space="preserve">
<g>
	<g>
		<path d="M460.8,145.067H51.2c-4.71,0-8.533,3.814-8.533,8.533v162.133c0,4.719,3.823,8.533,8.533,8.533h409.6
			c4.71,0,8.533-3.814,8.533-8.533V153.6C469.333,148.881,465.51,145.067,460.8,145.067z M452.267,307.2H59.733V162.133h392.533
			V307.2z"/>
	</g>
</g>
<g>
	<g>
		<path d="M219.366,232.9c-3.328-3.337-8.738-3.337-12.066,0l-34.133,34.133c-3.337,3.336-3.337,8.73,0,12.066
			c1.664,1.664,3.849,2.5,6.033,2.5c2.185,0,4.369-0.836,6.033-2.5l34.133-34.133C222.703,241.63,222.703,236.237,219.366,232.9z"/>
	</g>
</g>
<g>
	<g>
		<path d="M253.5,267.034L219.366,232.9c-3.328-3.337-8.738-3.337-12.066,0c-3.337,3.337-3.337,8.73,0,12.066l34.133,34.133
			c1.664,1.664,3.849,2.5,6.033,2.5c2.185,0,4.369-0.836,6.033-2.5C256.836,275.763,256.836,270.37,253.5,267.034z"/>
	</g>
</g>
<g>
	<g>
		<path d="M270.566,215.834c-3.328-3.337-8.738-3.337-12.066,0l-34.133,34.133c-3.337,3.336-3.337,8.73,0,12.066
			c1.664,1.664,3.849,2.5,6.033,2.5c2.185,0,4.369-0.836,6.033-2.5l34.133-34.133C273.903,224.563,273.903,219.17,270.566,215.834z"
			/>
	</g>
</g>
<g>
	<g>
		<path d="M304.7,249.967l-34.133-34.133c-3.328-3.337-8.738-3.337-12.066,0c-3.336,3.337-3.336,8.73,0,12.066l34.133,34.133
			c1.664,1.664,3.849,2.5,6.033,2.5c2.185,0,4.369-0.836,6.033-2.5C308.036,258.697,308.036,253.303,304.7,249.967z"/>
	</g>
</g>
<g>
	<g>
		<path d="M473.6,0H38.4C17.229,0,0,17.229,0,38.4v435.2C0,494.771,17.229,512,38.4,512h435.2c21.171,0,38.4-17.229,38.4-38.4V38.4
			C512,17.229,494.771,0,473.6,0z M494.933,473.6c0,11.767-9.566,21.333-21.333,21.333H38.4c-11.759,0-21.333-9.566-21.333-21.333
			V38.4c0-11.768,9.574-21.333,21.333-21.333h435.2c11.759,0,21.333,9.566,21.333,21.333V473.6z"/>
	</g>
</g>
<g>
	<g>
		<path d="M76.8,34.133H42.667c-4.71,0-8.533,3.814-8.533,8.533V76.8c0,4.719,3.823,8.533,8.533,8.533H76.8
			c4.71,0,8.533-3.814,8.533-8.533V42.667C85.333,37.948,81.51,34.133,76.8,34.133z M68.267,68.267H51.2V51.2h17.067V68.267z"/>
	</g>
</g>
<g>
	<g>
		<path d="M145.067,34.133h-34.133c-4.71,0-8.533,3.814-8.533,8.533V76.8c0,4.719,3.823,8.533,8.533,8.533h34.133
			c4.71,0,8.533-3.814,8.533-8.533V42.667C153.6,37.948,149.777,34.133,145.067,34.133z M136.533,68.267h-17.067V51.2h17.067V68.267
			z"/>
	</g>
</g>
<g>
	<g>
		<path d="M213.333,34.133H179.2c-4.71,0-8.533,3.814-8.533,8.533V76.8c0,4.719,3.823,8.533,8.533,8.533h34.133
			c4.71,0,8.533-3.814,8.533-8.533V42.667C221.867,37.948,218.044,34.133,213.333,34.133z M204.8,68.267h-17.067V51.2H204.8V68.267z
			"/>
	</g>
</g>
<g>
	<g>
		<path d="M341.137,179.2h-16.674c-9.523,0-17.263,7.74-17.263,17.263v16.683c0,9.515,7.74,17.254,17.263,17.254h16.674
			c9.523,0,17.263-7.74,17.263-17.263v-16.683C358.4,186.94,350.66,179.2,341.137,179.2z M341.333,213.146
			c0,0.094-0.085,0.188-0.196,0.188l-16.87-0.188l0.196-16.879l16.87,0.196V213.146z"/>
	</g>
</g>
<g>
	<g>
		<path d="M473.6,0H38.4C17.229,0,0,17.229,0,38.4v72.533c0,4.719,3.823,8.533,8.533,8.533h494.933c4.71,0,8.533-3.814,8.533-8.533
			V38.4C512,17.229,494.771,0,473.6,0z M494.933,102.4H17.067v-64c0-11.768,9.574-21.333,21.333-21.333h435.2
			c11.759,0,21.333,9.566,21.333,21.333V102.4z"/>
	</g>
</g>
<g>
	<g>
		<path d="M358.4,349.867H51.2c-4.71,0-8.533,3.814-8.533,8.533s3.823,8.533,8.533,8.533h307.2c4.71,0,8.533-3.814,8.533-8.533
			S363.11,349.867,358.4,349.867z"/>
	</g>
</g>
<g>
	<g>
		<path d="M460.8,349.867h-59.733c-4.71,0-8.533,3.814-8.533,8.533s3.823,8.533,8.533,8.533H460.8c4.71,0,8.533-3.814,8.533-8.533
			S465.51,349.867,460.8,349.867z"/>
	</g>
</g>
<g>
	<g>
		<path d="M460.8,384H153.6c-4.71,0-8.533,3.814-8.533,8.533c0,4.719,3.823,8.533,8.533,8.533h307.2c4.71,0,8.533-3.814,8.533-8.533
			C469.333,387.814,465.51,384,460.8,384z"/>
	</g>
</g>
<g>
	<g>
		<path d="M110.933,384H51.2c-4.71,0-8.533,3.814-8.533,8.533c0,4.719,3.823,8.533,8.533,8.533h59.733
			c4.71,0,8.533-3.814,8.533-8.533C119.467,387.814,115.644,384,110.933,384z"/>
	</g>
</g>
<g>
	<g>
		<path d="M358.4,418.133H51.2c-4.71,0-8.533,3.814-8.533,8.533S46.49,435.2,51.2,435.2h307.2c4.71,0,8.533-3.814,8.533-8.533
			S363.11,418.133,358.4,418.133z"/>
	</g>
</g>
<g>
	<g>
		<path d="M460.8,418.133h-59.733c-4.71,0-8.533,3.814-8.533,8.533s3.823,8.533,8.533,8.533H460.8c4.71,0,8.533-3.814,8.533-8.533
			S465.51,418.133,460.8,418.133z"/>
	</g>
</g>
<g>
	<g>
		<path d="M460.8,452.267H153.6c-4.71,0-8.533,3.814-8.533,8.533c0,4.719,3.823,8.533,8.533,8.533h307.2
			c4.71,0,8.533-3.814,8.533-8.533C469.333,456.081,465.51,452.267,460.8,452.267z"/>
	</g>
</g>
<g>
	<g>
		<path d="M110.933,452.267H51.2c-4.71,0-8.533,3.814-8.533,8.533c0,4.719,3.823,8.533,8.533,8.533h59.733
			c4.71,0,8.533-3.814,8.533-8.533C119.467,456.081,115.644,452.267,110.933,452.267z"/>
	</g>
</g>
<g>
</g>
<g>
</g>
<g>
</g>
<g>
</g>
<g>
</g>
<g>
</g>
<g>
</g>
<g>
</g>
<g>
</g>
<g>
</g>
<g>
</g>
<g>
</g>
<g>
</g>
<g>
</g>
<g>
</g>
</svg>
