<?xml version="1.0" ?><svg height="60px" version="1.1" viewBox="0 0 60 60" width="60px" xmlns="http://www.w3.org/2000/svg" xmlns:xlink="http://www.w3.org/1999/xlink"><title/><desc/><defs/><g fill="none" fill-rule="evenodd" id="Page-1" stroke="none" stroke-width="1"><g id="Github" stroke="#000000" stroke-width="2" transform="translate(1.000000, 1.000000)"><path d="M54,30.1998 C54,41.2558 46.861,50.6338 36.958,53.9538 C35.691,54.1988 35.244,53.4188 35.244,52.7488 C35.244,51.9278 35.275,49.2258 35.275,45.8798 C35.275,43.5418 34.475,42.0148 33.581,41.2458 C39.135,40.6218 44.97,38.5078 44.97,28.8908 C44.97,26.1578 44.004,23.9178 42.403,22.1678 C42.663,21.5338 43.515,18.9928 42.154,15.5428 C42.154,15.5428 40.065,14.8728 35.306,18.1098 C33.316,17.5538 31.181,17.2778 29.061,17.2678 C26.941,17.2778 24.806,17.5538 22.816,18.1098 C18.057,14.8728 15.958,15.5428 15.958,15.5428 C14.602,18.9928 15.459,21.5338 15.719,22.1678 C14.118,23.9178 13.147,26.1578 13.147,28.8908 C13.147,38.4818 18.971,40.6328 24.51,41.2608 C23.798,41.8898 23.154,42.9918 22.925,44.6068 C21.501,45.2518 17.89,46.3578 15.667,42.5288 C15.667,42.5288 14.347,40.1288 11.848,39.9518 C11.848,39.9518 9.411,39.9208 11.676,41.4738 C11.676,41.4738 13.313,42.2428 14.446,45.1318 C14.446,45.1318 15.906,50.0058 22.847,48.4888 C22.857,50.5818 22.878,52.1568 22.878,52.7488 C22.878,53.4138 22.426,54.1828 21.179,53.9538 C11.266,50.6448 4.122,41.2608 4.122,30.1998 C4.122,16.3688 15.287,5.1618 29.061,5.1618 C42.835,5.1618 54,16.3688 54,30.1998 L54,30.1998 Z" id="Stroke-52"/><path d="M54,58 L4,58 C1.791,58 0,56.209 0,54 L0,4 C0,1.791 1.791,0 4,0 L54,0 C56.209,0 58,1.791 58,4 L58,54 C58,56.209 56.209,58 54,58 L54,58 Z" id="Stroke-120" stroke-linejoin="round"/></g></g></svg>